<?xml version="1.0" standalone="no"?>
<!DOCTYPE svg PUBLIC "-//W3C//DTD SVG 20010904//EN"
 "http://www.w3.org/TR/2001/REC-SVG-20010904/DTD/svg10.dtd">
<svg version="1.0" xmlns="http://www.w3.org/2000/svg"
 width="206.400000pt" height="138.960000pt" viewBox="0 0 206.400000 138.960000"
 preserveAspectRatio="xMidYMid meet">
<metadata>
Created by potrace 1.16, written by Peter Selinger 2001-2019
</metadata>
<g transform="translate(0.000000,138.960000) scale(0.024000,-0.024000)"
fill="#000000" stroke="none">
<path d="M215 5752 c-40 -14 -74 -45 -95 -86 -20 -42 -20 -56 -20 -852 l0
-810 45 -44 45 -44 0 -326 0 -325 -43 -27 -44 -28 -6 -847 c-6 -931 1 -2236
14 -2269 4 -11 23 -28 42 -38 33 -15 335 -16 4149 -14 4010 3 4114 3 4144 22
17 10 40 33 50 50 18 30 19 107 22 2770 2 2724 2 2740 -18 2781 -11 23 -35 52
-52 66 l-33 24 -4090 2 c-2250 0 -4099 -2 -4110 -5z m8199 -26 c18 -7 44 -29
57 -47 l24 -34 0 -2746 c0 -2984 4 -2777 -54 -2816 -25 -17 -235 -18 -4136
-21 -3114 -2 -4117 1 -4138 9 -16 7 -33 23 -38 36 -5 14 -9 242 -9 514 l0 489
312 0 c306 0 312 0 335 22 l23 21 0 396 c0 392 0 395 -22 418 l-21 23 -314 0
-313 0 0 603 0 602 45 28 45 29 0 337 0 337 -45 44 -45 45 2 815 3 815 24 34
c13 18 38 39 55 47 47 20 8161 21 8210 0z m-7669 -4176 l0 -395 -307 -3 -308
-2 0 400 0 400 308 -2 307 -3 0 -395z"/>
<path d="M471 5464 c-74 -37 -106 -88 -106 -169 0 -50 5 -69 27 -102 33 -50
113 -93 173 -93 60 0 140 43 173 93 38 58 38 146 0 204 -33 50 -113 93 -173
93 -24 0 -63 -11 -94 -26z m190 -12 c132 -69 132 -245 0 -314 -34 -18 -69 -28
-96 -28 -27 0 -62 10 -96 28 -132 69 -132 245 0 314 34 18 69 28 96 28 27 0
62 -10 96 -28z"/>
<path d="M7971 5464 c-74 -37 -106 -88 -106 -169 0 -50 5 -69 27 -102 33 -50
113 -93 173 -93 60 0 140 43 173 93 22 33 27 52 27 102 0 50 -5 69 -27 102
-33 50 -113 93 -173 93 -24 0 -63 -11 -94 -26z m190 -12 c132 -69 132 -245 0
-314 -34 -18 -69 -28 -96 -28 -65 0 -143 45 -172 99 -49 93 -17 195 76 243 34
18 69 28 96 28 27 0 62 -10 96 -28z"/>
<path d="M1055 4888 c-3 -7 -4 -515 -3 -1128 l3 -1115 3015 0 3015 0 0 1125 0
1125 -3013 3 c-2405 2 -3014 0 -3017 -10z m5995 -1118 l0 -1090 -2980 0 -2980
0 0 1090 0 1090 2980 0 2980 0 0 -1090z"/>
<path d="M7180 4130 l0 -100 95 0 c74 0 95 -3 95 -14 0 -26 41 -65 75 -72 45
-8 87 13 104 54 l15 32 88 0 88 0 0 100 0 100 -280 0 -280 0 0 -100z m540 0
l0 -80 -89 0 -89 0 -7 -29 c-17 -78 -120 -77 -147 0 l-10 29 -89 0 -89 0 0 80
0 80 260 0 260 0 0 -80z"/>
<path d="M7870 4130 l0 -100 95 0 c74 0 95 -3 95 -14 0 -26 41 -65 75 -72 45
-8 87 13 104 54 l15 32 88 0 88 0 0 100 0 100 -280 0 -280 0 0 -100z m540 0
l0 -80 -89 0 -89 0 -7 -29 c-17 -78 -120 -77 -147 0 l-10 29 -89 0 -89 0 0 80
0 80 260 0 260 0 0 -80z"/>
<path d="M7821 2764 c-74 -37 -106 -88 -106 -169 0 -81 32 -132 106 -169 68
-34 120 -34 188 0 74 37 106 88 106 169 0 50 -5 69 -27 102 -33 50 -113 93
-173 93 -24 0 -63 -11 -94 -26z m190 -12 c132 -69 132 -245 0 -314 -70 -37
-122 -37 -192 0 -39 20 -58 38 -76 71 -49 93 -17 195 76 243 34 18 69 28 96
28 27 0 62 -10 96 -28z"/>
<path d="M7821 1924 c-74 -37 -106 -88 -106 -169 0 -81 32 -132 106 -169 68
-34 120 -34 188 0 74 37 106 88 106 169 0 81 -32 132 -106 169 -68 34 -120 34
-188 0z m190 -12 c132 -69 132 -245 0 -314 -70 -37 -122 -37 -192 0 -39 20
-58 38 -76 71 -49 93 -17 195 76 243 34 18 69 28 96 28 27 0 62 -10 96 -28z"/>
<path d="M471 664 c-74 -37 -106 -88 -106 -169 0 -81 32 -132 106 -169 68 -34
120 -34 188 0 74 37 106 88 106 169 0 81 -32 132 -106 169 -68 34 -120 34
-188 0z m190 -12 c132 -69 132 -245 0 -314 -70 -37 -122 -37 -192 0 -93 48
-125 150 -76 243 29 54 107 99 172 99 27 0 62 -10 96 -28z"/>
<path d="M7971 664 c-74 -37 -106 -88 -106 -169 0 -81 32 -132 106 -169 68
-34 120 -34 188 0 74 37 106 88 106 169 0 81 -32 132 -106 169 -68 34 -120 34
-188 0z m190 -12 c132 -69 132 -245 0 -314 -70 -37 -122 -37 -192 0 -39 20
-58 38 -76 71 -49 93 -17 195 76 243 34 18 69 28 96 28 27 0 62 -10 96 -28z"/>
</g>
</svg>
