<?xml version="1.0" standalone="no"?>
<!DOCTYPE svg PUBLIC "-//W3C//DTD SVG 20010904//EN"
 "http://www.w3.org/TR/2001/REC-SVG-20010904/DTD/svg10.dtd">
<svg version="1.0" xmlns="http://www.w3.org/2000/svg"
 width="210.720000pt" height="138.960000pt" viewBox="0 0 210.720000 138.960000"
 preserveAspectRatio="xMidYMid meet">
<metadata>
Created by potrace 1.16, written by Peter Selinger 2001-2019
</metadata>
<g transform="translate(0.000000,138.960000) scale(0.024000,-0.024000)"
fill="#000000" stroke="none">
<path d="M384 5739 c-42 -12 -82 -53 -94 -98 -6 -23 -10 -330 -10 -836 l0
-801 45 -44 45 -44 0 -326 0 -325 -43 -27 -44 -28 -6 -847 c-6 -931 1 -2236
14 -2269 4 -11 23 -28 42 -38 33 -15 335 -16 4149 -14 4010 3 4114 3 4144 22
17 10 40 33 50 50 18 30 19 104 19 2781 0 2677 -1 2751 -19 2781 -10 17 -33
40 -50 50 -30 19 -133 19 -4121 21 -2410 1 -4103 -2 -4121 -8z m8237 -32 c58
-39 54 168 54 -2812 0 -2980 4 -2773 -54 -2812 -25 -17 -235 -18 -4136 -21
-3114 -2 -4117 1 -4138 9 -16 7 -33 23 -38 36 -5 14 -9 242 -9 514 l0 489 312
0 c306 0 312 0 335 22 l23 21 0 396 c0 392 0 395 -22 418 l-21 23 -314 0 -313
0 0 603 0 602 45 28 45 29 0 337 0 337 -45 44 -45 44 0 792 c0 435 3 806 6
823 8 37 54 88 87 94 12 2 1862 4 4112 3 3884 -1 4091 -2 4116 -19z m-7696
-4157 l0 -395 -307 -3 -308 -2 0 400 0 400 308 -2 307 -3 0 -395z"/>
<path d="M651 5454 c-74 -37 -106 -88 -106 -169 0 -50 5 -69 27 -102 33 -50
113 -93 173 -93 60 0 140 43 173 93 38 58 38 146 0 204 -33 50 -113 93 -173
93 -24 0 -63 -11 -94 -26z m190 -12 c132 -69 132 -245 0 -314 -34 -18 -69 -28
-96 -28 -65 0 -143 45 -172 99 -49 93 -17 195 76 243 34 18 69 28 96 28 27 0
62 -10 96 -28z"/>
<path d="M8151 5454 c-74 -37 -106 -88 -106 -169 0 -50 5 -69 27 -102 33 -50
113 -93 173 -93 60 0 140 43 173 93 22 33 27 52 27 102 0 50 -5 69 -27 102
-33 50 -113 93 -173 93 -24 0 -63 -11 -94 -26z m190 -12 c132 -69 132 -245 0
-314 -34 -18 -69 -28 -96 -28 -65 0 -143 45 -172 99 -49 93 -17 195 76 243 34
18 69 28 96 28 27 0 62 -10 96 -28z"/>
<path d="M1235 4878 c-3 -7 -4 -512 -3 -1123 l3 -1110 3015 0 3015 0 0 1120 0
1120 -3013 3 c-2405 2 -3014 0 -3017 -10z m5995 -1113 l0 -1085 -2980 0 -2980
0 0 1085 0 1085 2980 0 2980 0 0 -1085z"/>
<path d="M8001 2764 c-74 -37 -106 -88 -106 -169 0 -81 32 -132 106 -169 68
-34 120 -34 188 0 74 37 106 88 106 169 0 50 -5 69 -27 102 -33 50 -113 93
-173 93 -24 0 -63 -11 -94 -26z m190 -12 c132 -69 132 -245 0 -314 -70 -37
-122 -37 -192 0 -39 20 -58 38 -76 71 -49 93 -17 195 76 243 34 18 69 28 96
28 27 0 62 -10 96 -28z"/>
<path d="M8001 1924 c-74 -37 -106 -88 -106 -169 0 -81 32 -132 106 -169 68
-34 120 -34 188 0 74 37 106 88 106 169 0 81 -32 132 -106 169 -68 34 -120 34
-188 0z m190 -12 c132 -69 132 -245 0 -314 -70 -37 -122 -37 -192 0 -39 20
-58 38 -76 71 -49 93 -17 195 76 243 34 18 69 28 96 28 27 0 62 -10 96 -28z"/>
<path d="M651 664 c-74 -37 -106 -88 -106 -169 0 -81 32 -132 106 -169 68 -34
120 -34 188 0 74 37 106 88 106 169 0 81 -32 132 -106 169 -68 34 -120 34
-188 0z m190 -12 c132 -69 132 -245 0 -314 -70 -37 -122 -37 -192 0 -93 48
-125 150 -76 243 29 54 107 99 172 99 27 0 62 -10 96 -28z"/>
<path d="M8151 664 c-74 -37 -106 -88 -106 -169 0 -81 32 -132 106 -169 68
-34 120 -34 188 0 74 37 106 88 106 169 0 81 -32 132 -106 169 -68 34 -120 34
-188 0z m190 -12 c132 -69 132 -245 0 -314 -70 -37 -122 -37 -192 0 -39 20
-58 38 -76 71 -49 93 -17 195 76 243 34 18 69 28 96 28 27 0 62 -10 96 -28z"/>
</g>
</svg>
