<?xml version="1.0" standalone="no"?>
<!DOCTYPE svg PUBLIC "-//W3C//DTD SVG 20010904//EN"
 "http://www.w3.org/TR/2001/REC-SVG-20010904/DTD/svg10.dtd">
<svg version="1.0" xmlns="http://www.w3.org/2000/svg"
 width="207.600000pt" height="138.480000pt" viewBox="0 0 207.600000 138.480000"
 preserveAspectRatio="xMidYMid meet">
<metadata>
Created by potrace 1.16, written by Peter Selinger 2001-2019
</metadata>
<g transform="translate(0.000000,138.480000) scale(0.024000,-0.024000)"
fill="#000000" stroke="none">
<path d="M293 5714 c-40 -19 -57 -35 -72 -68 -21 -42 -21 -55 -21 -852 l0
-810 45 -44 45 -44 0 -326 0 -325 -43 -27 -44 -28 -6 -847 c-6 -931 1 -2236
14 -2269 4 -11 23 -28 42 -37 30 -15 79 -17 361 -17 290 0 326 2 326 16 0 8
13 29 29 45 l29 29 421 0 c408 0 422 -1 441 -20 11 -11 20 -31 20 -45 l0 -25
2605 0 c2365 0 2605 1 2605 16 0 8 13 29 29 45 l29 29 361 0 c201 0 371 -4
384 -9 16 -6 30 -24 38 -46 l13 -36 286 3 c316 3 326 5 366 72 18 30 19 107
22 2770 l2 2739 -21 43 c-15 33 -32 49 -72 68 l-51 26 -4066 0 -4066 0 -51
-26z m8229 -17 c20 -10 45 -31 55 -45 17 -26 18 -140 18 -2773 0 -2984 4
-2777 -54 -2816 -23 -16 -58 -18 -303 -21 l-277 -3 -17 36 c-9 20 -28 41 -42
46 -15 6 -179 9 -398 7 -356 -3 -373 -4 -394 -23 -12 -11 -26 -30 -31 -42 l-9
-23 -2585 0 c-2360 0 -2585 1 -2585 16 0 9 -8 29 -17 45 l-18 30 -441 -3
c-426 -3 -443 -4 -464 -23 -12 -11 -26 -30 -31 -42 l-9 -23 -315 0 c-340 0
-366 3 -379 52 -3 13 -6 242 -6 511 l0 487 312 0 c306 0 312 0 335 22 l23 21
0 396 c0 392 0 395 -22 418 l-21 23 -314 0 -313 0 0 603 0 602 45 28 45 29 0
337 0 337 -45 44 -45 44 0 792 c0 435 3 806 6 823 8 40 51 84 96 98 23 8 1230
11 4098 9 3922 -1 4066 -2 4102 -19z m-7677 -4167 l0 -395 -307 -3 -308 -2 0
400 0 400 308 -2 307 -3 0 -395z"/>
<path d="M571 5444 c-74 -37 -106 -88 -106 -169 0 -50 5 -69 27 -102 33 -50
113 -93 173 -93 60 0 140 43 173 93 38 58 38 146 0 204 -33 50 -113 93 -173
93 -24 0 -63 -11 -94 -26z m190 -12 c132 -69 132 -245 0 -314 -70 -37 -122
-37 -192 0 -93 48 -125 150 -76 243 29 54 107 99 172 99 27 0 62 -10 96 -28z"/>
<path d="M8071 5444 c-74 -37 -106 -88 -106 -169 0 -50 5 -69 27 -102 33 -50
113 -93 173 -93 60 0 140 43 173 93 22 33 27 52 27 102 0 50 -5 69 -27 102
-33 50 -113 93 -173 93 -24 0 -63 -11 -94 -26z m190 -12 c132 -69 132 -245 0
-314 -70 -37 -122 -37 -192 0 -39 20 -58 38 -76 71 -49 93 -17 195 76 243 34
18 69 28 96 28 27 0 62 -10 96 -28z"/>
<path d="M1155 4868 c-3 -7 -4 -515 -3 -1128 l3 -1115 3015 0 3015 0 0 1125 0
1125 -3013 3 c-2405 2 -3014 0 -3017 -10z m5995 -1118 l0 -1090 -2980 0 -2980
0 0 1090 0 1090 2980 0 2980 0 0 -1090z"/>
<path d="M7280 4110 l0 -100 95 0 c74 0 95 -3 95 -14 0 -26 41 -65 75 -72 45
-8 87 13 104 54 l15 32 88 0 88 0 0 100 0 100 -280 0 -280 0 0 -100z m540 0
l0 -80 -89 0 -89 0 -7 -29 c-17 -78 -120 -77 -147 0 l-10 29 -89 0 -89 0 0 80
0 80 260 0 260 0 0 -80z"/>
<path d="M7970 4110 l0 -100 95 0 c74 0 95 -3 95 -14 0 -26 41 -65 75 -72 45
-8 87 13 104 54 l15 32 88 0 88 0 0 100 0 100 -280 0 -280 0 0 -100z m540 0
l0 -80 -89 0 -89 0 -7 -29 c-17 -78 -120 -77 -147 0 l-10 29 -89 0 -89 0 0 80
0 80 260 0 260 0 0 -80z"/>
<path d="M7921 2744 c-74 -37 -106 -88 -106 -169 0 -81 32 -132 106 -169 68
-34 120 -34 188 0 74 37 106 88 106 169 0 50 -5 69 -27 102 -33 50 -113 93
-173 93 -24 0 -63 -11 -94 -26z m190 -12 c132 -69 132 -245 0 -314 -70 -37
-122 -37 -192 0 -39 20 -58 38 -76 71 -49 93 -17 195 76 243 34 18 69 28 96
28 27 0 62 -10 96 -28z"/>
<path d="M7921 1904 c-74 -37 -106 -88 -106 -169 0 -81 32 -132 106 -169 68
-34 120 -34 188 0 74 37 106 88 106 169 0 81 -32 132 -106 169 -68 34 -120 34
-188 0z m190 -12 c132 -69 132 -245 0 -314 -70 -37 -122 -37 -192 0 -39 20
-58 38 -76 71 -49 93 -17 195 76 243 34 18 69 28 96 28 27 0 62 -10 96 -28z"/>
<path d="M571 644 c-74 -37 -106 -88 -106 -169 0 -81 32 -132 106 -169 68 -34
120 -34 188 0 74 37 106 88 106 169 0 81 -32 132 -106 169 -68 34 -120 34
-188 0z m190 -12 c132 -69 132 -245 0 -314 -70 -37 -122 -37 -192 0 -132 69
-132 245 0 314 70 37 122 37 192 0z"/>
<path d="M8071 644 c-74 -37 -106 -88 -106 -169 0 -81 32 -132 106 -169 68
-34 120 -34 188 0 74 37 106 88 106 169 0 81 -32 132 -106 169 -68 34 -120 34
-188 0z m190 -12 c132 -69 132 -245 0 -314 -70 -37 -122 -37 -192 0 -39 20
-58 38 -76 71 -49 93 -17 195 76 243 70 37 122 37 192 0z"/>
</g>
</svg>
