<?xml version="1.0" standalone="no"?>
<!DOCTYPE svg PUBLIC "-//W3C//DTD SVG 20010904//EN"
 "http://www.w3.org/TR/2001/REC-SVG-20010904/DTD/svg10.dtd">
<svg version="1.0" xmlns="http://www.w3.org/2000/svg"
 width="204.480000pt" height="138.960000pt" viewBox="0 0 204.480000 138.960000"
 preserveAspectRatio="xMidYMid meet">
<metadata>
Created by potrace 1.16, written by Peter Selinger 2001-2019
</metadata>
<g transform="translate(0.000000,138.960000) scale(0.024000,-0.024000)"
fill="#000000" stroke="none">
<path d="M114 5749 c-42 -12 -82 -53 -94 -98 -6 -23 -10 -331 -10 -841 l0
-806 45 -44 45 -44 0 -326 0 -325 -45 -28 -45 -29 0 -416 c0 -230 -2 -696 -4
-1037 -1 -341 0 -853 3 -1137 l6 -518 28 -27 27 -28 4133 0 c4031 0 4133 0
4163 19 17 10 40 33 50 50 18 30 19 104 19 2786 0 2682 -1 2756 -19 2786 -10
17 -33 40 -50 50 -30 19 -133 19 -4126 21 -2413 1 -4108 -2 -4126 -8z m8247
-32 c58 -39 54 169 54 -2817 0 -2986 4 -2778 -54 -2817 -25 -17 -235 -18
-4149 -21 l-4123 -2 -30 29 -29 29 0 496 0 496 312 0 c306 0 312 0 335 22 l23
21 0 396 c0 392 0 395 -22 418 l-21 23 -314 0 -313 0 0 603 0 602 45 28 45 29
0 337 0 337 -45 44 -45 44 0 797 c0 438 3 811 6 828 8 37 54 88 87 94 12 2
1865 4 4117 3 3888 -1 4096 -2 4121 -19z m-7706 -4167 l0 -395 -307 -3 -308
-2 0 400 0 400 308 -2 307 -3 0 -395z"/>
<path d="M395 5481 c-135 -63 -165 -233 -59 -333 104 -97 264 -64 325 67 76
163 -103 342 -266 266z m153 -6 c161 -68 161 -292 0 -360 -96 -40 -205 4 -249
100 -73 158 89 326 249 260z"/>
<path d="M7905 5481 c-135 -63 -165 -233 -59 -333 104 -97 264 -64 325 67 76
163 -103 342 -266 266z m153 -6 c49 -21 81 -52 103 -100 46 -100 0 -216 -103
-260 -96 -40 -205 4 -249 100 -73 158 89 326 249 260z"/>
<path d="M965 4888 c-3 -7 -4 -515 -3 -1128 l3 -1115 3020 0 3020 0 0 1125 0
1125 -3018 3 c-2409 2 -3019 0 -3022 -10z m6005 -1118 l0 -1090 -2985 0 -2985
0 0 1090 0 1090 2985 0 2985 0 0 -1090z"/>
<path d="M7100 4130 l0 -100 90 0 89 0 17 -36 c19 -41 54 -58 100 -50 31 6 66
37 77 69 5 14 20 17 97 17 l90 0 0 100 0 100 -280 0 -280 0 0 -100z m540 0 l0
-80 -88 0 c-87 0 -88 0 -99 -29 -15 -41 -54 -64 -94 -56 -24 6 -35 16 -48 46
l-16 39 -87 0 -88 0 0 80 0 80 260 0 260 0 0 -80z"/>
<path d="M7790 4130 l0 -100 90 0 89 0 17 -36 c19 -41 54 -58 100 -50 31 6 66
37 77 69 5 14 20 17 97 17 l90 0 0 100 0 100 -280 0 -280 0 0 -100z m540 0 l0
-80 -88 0 c-87 0 -88 0 -99 -29 -15 -41 -54 -64 -94 -56 -24 6 -35 16 -48 46
l-16 39 -87 0 -88 0 0 80 0 80 260 0 260 0 0 -80z"/>
<path d="M7755 2781 c-135 -63 -165 -233 -59 -333 104 -97 264 -64 325 67 76
163 -103 342 -266 266z m153 -6 c49 -21 81 -52 103 -100 46 -100 0 -216 -103
-260 -96 -40 -205 4 -249 100 -73 158 89 326 249 260z"/>
<path d="M7755 1941 c-135 -63 -165 -233 -59 -333 104 -97 264 -64 325 67 76
163 -103 342 -266 266z m153 -6 c49 -21 81 -52 103 -100 46 -100 0 -216 -103
-260 -96 -40 -205 4 -249 100 -73 158 89 326 249 260z"/>
<path d="M395 681 c-135 -63 -165 -233 -59 -333 104 -97 264 -64 325 67 76
163 -103 342 -266 266z m153 -6 c161 -68 161 -292 0 -360 -96 -40 -205 4 -249
100 -73 158 89 326 249 260z"/>
<path d="M7905 681 c-135 -63 -165 -233 -59 -333 104 -97 264 -64 325 67 76
163 -103 342 -266 266z m153 -6 c49 -21 81 -52 103 -100 73 -158 -89 -326
-249 -260 -158 67 -162 284 -7 356 49 23 104 24 153 4z"/>
</g>
</svg>
